<?xml version="1.0" encoding="UTF-8"?>
<svg id="Ebene_1" data-name="Ebene 1" xmlns="http://www.w3.org/2000/svg" viewBox="0 0 752.07 752.07">
  <defs>
    <style>
      .cls-1 {
        fill: #f5f5f5;
        stroke-width: 0px;
      }
    </style>
  </defs>
  <path class="cls-1" d="M542.13,471.44c-16.08-4.06-30.09-7.24-43.88-11.21-10.67-3.07-21.21-6.74-31.52-10.87-9.54-3.82-14.32-11.2-13.78-21.87.67-13.07,2.4-25.12,11.89-35.8,21.41-24.12,32.91-53.43,41.04-84.27,1.37-5.18,4.36-9.99,6.91-14.8,7.58-14.32,16.05-28.24,22.6-43.01,2.23-5.04,1.24-12.74-.95-18.14-1.97-4.86-7.15-9.07-11.95-11.67-1.26-.68-6.53,5.5-9.6,8.86-2.82,3.09-5.15,6.63-9.2,11.94-2.33-15.13-4.04-27.5-6.17-39.8-5.03-29.02-21.11-51.81-41.08-72.42-4.76-4.91-8.51-4.12-13.21.15-6.86,6.23-13.59,13.06-21.57,17.5-12.29,6.84-25.6,11.87-39.5,16.03,7.55-10.9,12.79-21.26,12.14-33.67-1.74-.52-2.27-.84-2.42-.71-21.62,18.41-49.01,23.23-74.61,32.71-35.65,13.21-59.44,39.49-72.09,75.54-1.31,3.72-2.54,7.47-4.68,13.82-6.48-9.31-12.08-16.51-16.73-24.27-4.68-7.81-9.96-6.94-13.24-.34-3.14,6.31-5.43,14.15-4.72,20.96.85,8.2,3.46,17.48,8.47,23.76,18.27,22.88,24.85,51.04,37.28,76.5,8.53,17.48,19.57,34.04,31.39,49.55,13.9,18.24,9.97,46-11.06,54.98-21.1,9.01-43.21,15.66-64.99,22.99-2.18.73-5.81-.22-7.72-1.72-29.62-23.27-47.15-53.04-51.73-91.05-5.51-45.8,3.73-89.93,12.5-134.15,10.25-51.73,25.69-102.27,46.94-150.26,22.33-50.44,62.13-83.07,117.48-94.21,39.21-7.89,74.48,3.84,108.58,21.9,4.36,2.31,10.41,3.25,15.29,2.44,21.39-3.56,53.26,10.96,64.42,33.55,12.41,25.14,22.95,51.37,32.21,77.86,19.08,54.54,34.94,110.08,42.3,167.57,4,31.26,5.8,62.65-1.34,94-5.65,24.81-18.22,45.11-36.36,62.37-9.64,9.18-9.22,10.09,2.68,14.86,31.93,12.79,64.99,23.6,95.14,39.79,41.58,22.33,65.71,57.67,63.99,107.36-.71,20.4-.54,40.85,0,61.25.22,8.14-2.9,11.46-10.31,14.07-57.74,20.39-117.28,32.48-177.72,41.67-61.47,9.34-123.23,13.01-185.01,9.67-51.16-2.76-102.44-8.42-152.93-17.08-45.42-7.78-89.82-21.46-134.71-32.35-7.31-1.77-10.15-5.34-9.86-13.17.99-26.66-.12-53.47,2.13-80,3.66-43.28,30.48-72.02,66.6-91.08,27.7-14.62,57.9-24.56,87.22-35.98,2.94-1.15,8.35.82,11.19,3.1,33.56,27.04,70.08,48.34,111.43,61.4,50.92,16.07,99.66,9.66,145.12-16,25.28-14.27,47.66-33.69,71.27-50.9,1.95-1.43,3.29-3.7,6.44-7.35Z"/>
</svg>