<?xml version="1.0" encoding="UTF-8"?>
<svg id="Ebene_1" data-name="Ebene 1" xmlns="http://www.w3.org/2000/svg" viewBox="0 0 756.59 756.59">
  <defs>
    <style>
      .cls-1 {
        fill: #f5f5f5;
        stroke-width: 0px;
      }
    </style>
  </defs>
  <path class="cls-1" d="M554.4,481.57c31.93,12.79,64.99,23.6,95.14,39.79,41.58,22.33,65.71,57.67,63.99,107.36-.71,20.4-.54,40.85,0,61.25.22,8.14-2.9,11.46-10.31,14.07-57.74,20.39-117.28,32.48-177.72,41.67-61.47,9.34-123.23,13.01-185.01,9.67-51.16-2.76-102.44-8.42-152.93-17.08-45.42-7.78-89.82-21.46-134.71-32.35-7.31-1.77-10.15-5.34-9.86-13.17.99-26.66-.12-53.47,2.13-80,3.66-43.28,30.48-72.02,66.6-91.08,27.7-14.62,57.9-24.56,87.22-35.98,2.94-1.15,8.35.82,11.19,3.1,33.56,27.04,70.08,48.34,111.43,61.4,50.92,16.07,99.66,9.66,145.12-16,11.91-6.72,12.76-9.51,71.27-50.9,2.83-2,5.17-3.65,6.72-4.75"/>
  <path class="cls-1" d="M160.09,145.62c-3.79-1.03-7.29-3.14-11.41-4.98,2.1-2.63,3.97-5.14,6-7.52,7.04-8.27,13.96-16.67,21.28-24.69,5.42-5.95,11.48-11.33,17.15-17.06,5.69-5.75,11.08-11.81,16.92-17.4,4.8-4.6,10.02-8.75,15.1-13.03,4.96-4.17,9.79-8.5,15-12.3,5.99-4.37,12.34-8.2,18.52-12.3,3.89-2.58,7.62-5.42,11.66-7.77,4.8-2.79,9.77-5.34,14.78-7.72,7.67-3.64,15.31-7.44,23.23-10.45,5.99-2.28,12.39-3.52,18.65-5.09,6.45-1.62,12.9-4,19.43-4.4,9.59-.55,19.4-2.32,28.84,1.44.5.2,1.06.26,1.6.3,9.71.4,18.5,4.02,27.3,7.67,9.72,4.05,19.02,9.16,26.9,15.92,9.33,7.97,19.36,15.43,26.04,26.18.99,1.57,3.24,2.81,5.14,3.29,9.64,2.45,19.51,4.1,29,7.01,5.99,1.84,11.18,6.28,17.18,7.97,6.58,1.84,11,6.55,16.49,9.76,3.26,1.92,5.72,5.14,8.6,7.72,2.63,2.35,5.56,4.4,7.97,6.95,2.48,2.58,4.76,5.44,6.66,8.48,4,6.4,8.1,12.8,11.43,19.56,3.79,7.71,7.37,15.63,9.9,23.81,1.98,6.35,2.35,13.21,3.19,19.89.64,5.14,1.31,10.33,1.22,15.49-.1,6.7-.31,13.49-1.59,20.04-1.62,8.4-3.77,16.82-6.78,24.84-2.88,7.67-6.43,15.31-11.01,22.08-4.75,6.99-8.23,15.15-15.81,20.07-1.74,1.14-2.6,3.6-3.99,5.62,5.16,2.43,10.63,4.4,15.44,7.41,4.73,2.96,7.31,7.92,7.57,13.54.3,5.9.35,11.86-.13,17.74-.23,2.96-1.74,5.84-2.84,8.7-2.63,6.81-4.76,13.89-8.22,20.27-3.59,6.61-5.23,14.9-12.72,18.75-3.32,1.7-7.19,2.94-10.88,3.19-8.04.53-7.69.23-8.25,8.27-.58,8.12-1.14,16.32-5.95,23.53-2.03,3.04-2.74,6.93-4.61,10.12-2.58,4.45-5.44,8.78-8.63,12.82-4.2,5.31-8.81,10.29-13.31,15.36-1.89,2.12-4.12,3.95-5.84,6.18-1.01,1.32-2.07,3.36-1.77,4.8,1.09,5.39,2.7,10.68,4.23,15.97.28.98,1.17,1.77,1.57,2.35-2.17,3.8-4.1,7.42-6.28,10.9-1.03,1.64-2.5,3.04-3.89,4.43-5.14,5.13-10.07,10.52-15.61,15.2-3.17,2.7-7.26,4.46-11.13,6.22-7.13,3.22-14.34,6.28-21.65,9.11-2.74,1.06-5.8,1.44-8.76,1.8-8.45,1.04-16.92,1.87-25.37,2.89-1.95.25-3.84,1.01-5.75,1.5-.64.17-1.5.58-1.95.31-6.3-3.64-13.21-.99-19.74-2.05-5.85-.94-11.76-1.79-17.54-3.09-6.68-1.52-13.36-3.22-19.88-5.34-3.99-1.31-7.71-3.49-11.49-5.37-6.32-3.16-13.13-5.67-18.77-9.79-7.42-5.44-13.92-12.15-20.82-18.34-.5-.45-.89-1.01-1.31-1.54-1.79-2.27-4.7-4.33-5.13-6.83-.93-5.36-.13-10.83,3.08-15.63,4.22-6.33,3.32-7.82-1.44-12.88-4.5-4.8-10.29-8.43-13.25-14.82-1.62-3.47-5.26-5.99-7.24-9.36-3.16-5.36-6.23-10.9-8.37-16.72-2.65-7.26-4.3-14.87-6.38-22.34-.03-.13-.07-.26-.08-.4-.36-2.27.03-5.7-1.26-6.51-2.36-1.5-5.69-1.77-8.66-1.98-4.81-.36-8.42-3.14-11.59-6.05-6.12-5.61-10.93-12.12-13.13-20.55-1.47-5.7-4.68-10.96-6.65-16.59-1.62-4.66-1.75-9.97-3.95-14.29-3.57-6.99-1.85-14.17-2.28-21.28-.41-6.94,7.84-13.18,13.74-13.26,1.85-.03,3.72-.2,6.15-.35-5.87-8.47-6.43-17.66-6.38-26.77.08-13.44,1.07-26.87,1.22-40.3.07-5.99-.18-12.22-1.74-17.94-3.01-11.06-7.33-21.68-17.21-28.76-6.23-4.46-12.09-9.51-19.79-11.62Z"/>
  <path class="cls-1" d="M81.98,657.44c-4.88-1.95-11-5.3-12.3-10.88-.79-3.4.65-5.71,1.35-8.35,3.35-12.66-13.38-20.93-17.12-37.86-2.34-10.6.55-23.93,8.28-31.45,12.33-12.01,35.58-7.88,35.59-9.93,0-1.55-13.22-2.16-13.43-5.12-.1-1.37,2.68-2.04,9.93-7.1,2.81-1.96,2.56-1.97,5.2-3.78,2.33-1.59,6.15-4.21,10.41-6.15,2.16-.99,3.89-1.55,10.88-3.31,15.85-3.99,15.85-3.31,17.98-4.73,5.72-3.83,3.61-7.34,10.41-13.72,2.16-2.03,3.61-2.84,14.14-8.38,14.86-7.82,17.94-9.39,17.94-9.39,2.91-.97,6.77-2.62,10.8-5.46,2.94-2.07,5.22-4.24,6.91-6.11,4.37-1.82,7.8-3.53,10.11-4.75,4.78-2.53,10.04-4.07,14.78-6.68.62-.34,2.21-1.23,3.75-.7.85.29,1.64,1.01,2.3,2.42,2.13,4.53,4.86,8.83,7.79,12.93,2.91,4.1,6.35,7.85,9.62,11.71,1.6,1.9,3.09,3.98,5.01,5.51,5.67,4.53,11.43,8.96,17.35,13.18,4.84,3.44,9.79,6.81,15,9.66,5.47,2.99,11.21,5.54,16.98,7.89,6.3,2.56,12.72,4.88,19.2,6.91,5.23,1.65,10.6,2.88,15.96,3.99,5.56,1.14,11.16,2.4,16.78,2.71,9.28.51,18.62.73,27.88.3,9.19-.41,18.37.86,27.65-2.08,6.52-2.07,13.86-1.49,20.5-4.4,6.04-2.65,12.5-4.32,18.67-6.68,7.14-2.74,14.62-4.51,20.47-10.37,4.22-4.23,10.09-6.75,14.96-10.38,3.47-2.61,6.76-5.59,9.64-8.83,3.79-4.23,7.42-8.66,10.48-13.41,3.62-5.62,6.65-11.64,9.76-17.56.43-.82,1.56-2.52,3.61-3.38,1.98-.83,3.81-.41,5.84.03,10.69,2.33,4.71.43,14.47,2.95,1.79.46,4.24,1.11,7.17,1.91,10.11,10.7,26.43,25.69,49.94,38.45,2.33,1.26,7.93,4.09,21.81,10.33,15.93,7.16,37.93,16.24,65.53,25.25-1.68,6.24-.7,10.14.63,12.61,2.74,5.07,8.19,5.65,8.41,9.94.19,3.64-2.63,4.33-3.82,8.41-2.14,7.32,4.87,12.3,7.65,22.95,1.06,4.07,1.78,10.01,0,17.87-4.47,19.72-7.17,40.69-10.21,52.33"/>
</svg>